<svg xmlns="http://www.w3.org/2000/svg" version="1.1" xmlns:xlink="http://www.w3.org/1999/xlink" xmlns:svgjs="http://svgjs.com/svgjs" width="512" height="512" x="0" y="0" viewBox="0 0 512 512" style="enable-background:new 0 0 512 512" xml:space="preserve" class="">
    <g>
        <g xmlns="http://www.w3.org/2000/svg">
            <g>
                <path d="M509.184,251.106c-3.34-23.621-17.558-43.96-39.008-55.801c-5.517-3.046-12.353-2.318-17.105,1.824    c-4.752,4.142-6.408,10.813-4.144,16.696c2.13,5.535,0.798,11.82-3.394,16.012c-5.849,5.848-15.366,5.848-21.212,0l-53.032-53.032    l10.607-10.607c5.854-5.854,5.857-15.356,0-21.212l-47.729-47.729c-29.309-29.311-76.751-29.313-106.062,0l-10.607,10.607    c-5.862,5.862-15.349,5.863-21.212,0c-0.068-0.068-0.137-0.136-0.207-0.203l-93.756-90.206    C78.922-5.829,40.943-5.79,17.587,17.567c-23.449,23.449-23.45,61.4,0,84.851c0.068,0.068,0.136,0.136,0.206,0.202l93.727,90.181    c5.723,5.813,5.801,15.241-0.085,21.126l-10.606,10.606c-29.311,29.31-29.314,76.75,0,106.063l47.728,47.729    c5.854,5.854,15.356,5.857,21.212,0l10.607-10.607l53.032,53.032c41.034,41.035,107.45,41.038,148.488,0    c103.185-103.185,103.58-103.581,106.063-106.063C504.783,297.862,512.52,274.689,509.184,251.106z M122.043,245.745    l10.606-10.606c17.588-17.587,17.589-46.05,0-63.638c-0.068-0.068-0.137-0.136-0.207-0.203L38.709,81.113    C27.081,69.388,27.099,50.481,38.8,38.779c11.697-11.697,30.728-11.697,42.426,0c0.068,0.068,0.137,0.136,0.207,0.203    l93.756,90.207c17.594,17.471,45.973,17.439,63.524-0.113l10.607-10.607c15.808-15.808,40.35-17.379,57.888-4.857L117.186,303.634    C104.679,286.117,106.214,261.573,122.043,245.745z M159.165,346.506l-21.212-21.212l190.914-190.914l21.212,21.212    L212.197,293.473L159.165,346.506z M466.748,293.472c-17.544,17.545-46.093,17.545-63.638,0c-5.857-5.858-15.355-5.858-21.212,0    s-5.858,15.355,0,21.212c11.633,11.633,26.415,18.963,42.423,21.215l-63.634,63.634c-29.311,29.31-76.75,29.314-106.063,0    l-53.032-53.031l21.212-21.212l31.819,31.819c5.857,5.858,15.355,5.858,21.212,0s5.858-15.355,0-21.212l-31.819-31.819    l21.212-21.212l31.819,31.819c5.857,5.857,15.355,5.858,21.212,0s5.858-15.355,0-21.212l-31.819-31.819l21.212-21.212    l31.819,31.819c5.859,5.859,15.357,5.856,21.212,0c5.858-5.858,5.858-15.355,0-21.212l-31.819-31.819l21.212-21.212l53.031,53.033    c17.56,17.56,46.108,17.529,63.637,0c3.196-3.196,5.838-6.798,7.896-10.665c2.443,4.565,4.083,9.578,4.839,14.924    C481.484,269.467,476.843,283.378,466.748,293.472z" fill="#000000" data-original="#000000" class=""></path>
            </g>
        </g>
        <g xmlns="http://www.w3.org/2000/svg">
            <g>
                <path d="M497,59.992h-15v-15c0-8.284-6.716-15-15-15s-15,6.716-15,15v15h-15c-8.284,0-15,6.716-15,15c0,8.284,6.716,15,15,15h15    v15c0,8.284,6.716,15,15,15c8.284,0,15-6.716,15-15v-15h15c8.284,0,15-6.716,15-15C512,66.707,505.284,59.992,497,59.992z" fill="#000000" data-original="#000000" class=""></path>
            </g>
        </g>
        <g xmlns="http://www.w3.org/2000/svg">
            <g>
                <path d="M497,449.981h-15v-15c0-8.284-6.716-15-15-15s-15,6.716-15,15v15h-15c-8.284,0-15,6.716-15,15c0,8.284,6.716,15,15,15h15    v17c0,8.285,6.716,15,15,15c8.284,0,15-6.716,15-15v-17h15c8.284,0,15-6.716,15-15C512,456.697,505.284,449.981,497,449.981z" fill="#000000" data-original="#000000" class=""></path>
            </g>
        </g>
        <g xmlns="http://www.w3.org/2000/svg">
            <g>
                <path d="M75.012,419.982h-15v-15c0-8.284-6.716-15-15-15c-8.284,0-15,6.716-15,15v15h-15c-8.284,0-15,6.716-15,15s6.716,15,15,15    h15v15c0,8.284,6.716,15,15,15c8.284,0,15-6.716,15-15v-15h15c8.284,0,15-6.716,15-15S83.296,419.982,75.012,419.982z" fill="#000000" data-original="#000000" class=""></path>
            </g>
        </g>
    </g>
</svg>
