<svg xmlns="http://www.w3.org/2000/svg" version="1.1" xmlns:xlink="http://www.w3.org/1999/xlink" xmlns:svgjs="http://svgjs.com/svgjs" width="512" height="512" x="0" y="0" viewBox="0 0 64.276 64.276" style="enable-background:new 0 0 512 512" xml:space="preserve">
    <g>
        <g xmlns="http://www.w3.org/2000/svg">
            <path d="m61.343 2.929c-1.889-1.889-4.4-2.929-7.071-2.929-2.672 0-5.183 1.04-7.071 2.929l-9.015 9.015c-.305.304-.38.769-.188 1.153l.242.485c.097.194.254.352.447.448l2.211 1.105-2.211 1.105c-.193.097-.351.254-.447.447l-1.105 2.211-1.105-2.211c-.097-.193-.254-.351-.448-.447l-.485-.242c-.383-.193-.848-.119-1.153.188l-31.015 31.015c-1.889 1.889-2.929 4.4-2.929 7.071s1.04 5.182 2.929 7.07 4.399 2.929 7.07 2.929c2.672 0 5.183-1.04 7.071-2.929l44.273-44.272c1.889-1.889 2.929-4.399 2.929-7.071-.001-2.671-1.041-5.182-2.929-7.07z" fill="#ff5554"></path>
            <path d="m64.276 9.996c0 2.68-1.04 5.19-2.93 7.07l-44.28 44.28c-1.88 1.89-4.39 2.93-7.07 2.93-2.67 0-5.18-1.04-7.07-2.93-1.36-1.36-2.28-3.05-2.69-4.88.43.73.95 1.4 1.56 2.01 1.89 1.89 4.4 2.93 7.07 2.93s5.18-1.04 7.07-2.93l44.27-44.27c1.89-1.89 2.93-4.4 2.93-7.07 0-.77-.09-1.52-.25-2.24.9 1.53 1.39 3.28 1.39 5.1z" fill="#ff3f3c"></path>
            <path d="m61.343 2.929c-3.898-3.897-10.243-3.899-14.142 0l-9.015 9.015c-.305.304-.38.769-.188 1.153l.242.485c.097.194.254.352.447.448l2.211 1.105-1.75.875c-.287.144-.488.417-.54.734s.053.64.28.867l10.248 10.249c.188.188.441.293.707.293s.52-.105.707-.293l10.793-10.79c3.899-3.898 3.899-10.243 0-14.141z" fill="#ededef"></path>
            <g fill="#ffdd5b">
                <path d="m43.583 14.241-3.702-1.851-1.851-3.702c-.34-.678-1.449-.678-1.789 0l-1.851 3.702-3.702 1.851c-.339.17-.553.516-.553.895s.214.725.553.895l3.702 1.851 1.851 3.702c.17.339.516.553.895.553s.725-.214.895-.553l1.851-3.702 3.702-1.851c.339-.17.553-.516.553-.895s-.215-.725-.554-.895z" fill="#ffdd5b"></path>
                <path d="m25.507 15.207-4.602-1.841-1.841-4.602c-.152-.38-.52-.629-.929-.629s-.776.249-.929.629l-1.841 4.602-4.602 1.841c-.38.152-.629.52-.629.929s.249.776.629.929l4.602 1.841 1.841 4.602c.152.38.52.629.929.629s.776-.249.929-.629l1.841-4.602 4.602-1.841c.38-.152.629-.52.629-.929s-.249-.777-.629-.929z" fill="#ffdd5b"></path>
                <path d="m54.452 47.188-5.525-1.843-1.843-5.525c-.136-.408-.518-.684-.948-.684s-.812.275-.948.684l-1.843 5.525-5.525 1.843c-.408.136-.684.518-.684.948s.275.812.684.948l5.525 1.843 1.843 5.525c.136.408.518.684.948.684s.812-.275.948-.684l1.843-5.525 5.525-1.843c.408-.136.684-.518.684-.948s-.276-.813-.684-.948z" fill="#ffdd5b"></path>
            </g>
            <path d="m44.136 15.136c0 .38-.21.72-.55.89l-3.7 1.86-1.86 3.7c-.17.34-.51.55-.89.55-.18 0-.35-.05-.5-.14.17-.09.3-.23.39-.41l1.86-3.7 3.7-1.86c.34-.17.55-.51.55-.89s-.21-.72-.55-.89l-3.7-1.86-1.86-3.7c-.09-.17-.23-.3-.39-.38.47-.24 1.14-.12 1.39.38l1.86 3.7 3.7 1.86c.34.17.55.51.55.89z" fill="#f9d64c"></path>
            <path d="m26.136 16.136c0 .41-.25.78-.63.93l-4.6 1.84-1.84 4.6c-.15.38-.52.63-.93.63-.18 0-.35-.05-.5-.14.19-.11.35-.28.43-.49l1.84-4.6 4.6-1.84c.38-.15.63-.52.63-.93s-.25-.78-.63-.93l-4.6-1.84-1.84-4.6c-.08-.21-.24-.38-.43-.49.15-.09.32-.14.5-.14.41 0 .78.25.93.63l1.84 4.6 4.6 1.84c.38.15.63.52.63.93z" fill="#f9d64c"></path>
            <path d="m55.136 48.136c0 .43-.28.81-.68.95l-5.53 1.84-1.84 5.53c-.14.4-.52.68-.95.68-.18 0-.35-.05-.5-.14.21-.12.37-.31.45-.54l1.84-5.53 5.53-1.84c.4-.14.68-.52.68-.95s-.28-.81-.68-.95l-5.53-1.84-1.84-5.53c-.08-.23-.24-.42-.45-.54.15-.09.32-.14.5-.14.43 0 .81.28.95.68l1.84 5.53 5.53 1.84c.4.14.68.52.68.95z" fill="#f9d64c"></path>
            <path d="m50.544 27.866c.001-.001.002-.001.003-.002l.005-.003 10.791-10.791c3.279-3.278 3.789-8.281 1.554-12.11.151.701.239 1.428.239 2.175 0 2.67-1.04 5.18-2.93 7.07l-12.362 12.363 1.294 1.294c.188.188.441.293.707.293.132 0 .261-.026.38-.076.118-.049.226-.121.319-.213z" fill="#dcdcdf"></path>
        </g>
    </g>
</svg>