<svg xmlns="http://www.w3.org/2000/svg" version="1.1" xmlns:xlink="http://www.w3.org/1999/xlink" xmlns:svgjs="http://svgjs.com/svgjs" width="512" height="512" x="0" y="0" viewBox="0 0 256 256" style="enable-background:new 0 0 512 512" xml:space="preserve" class="">
    <g>
        <rect xmlns="http://www.w3.org/2000/svg" fill="#fe715f" height="135.733" rx="5.344" transform="matrix(.866 .5 -.5 .866 92.344 -53.143)" width="135.733" x="77.471" y="77.879" class=""></rect>
        <g xmlns="http://www.w3.org/2000/svg" fill="#f6513b">
            <circle cx="126.732" cy="81.069" r="5.495" transform="matrix(.5 -.866 .866 .5 -6.842 150.288)" fill="#f6513b"></circle>
            <circle cx="115.055" cy="101.295" r="5.495" transform="matrix(.5 -.866 .866 .5 -30.196 150.288)" fill="#f6513b"></circle>
            <circle cx="103.378" cy="121.52" r="5.495" transform="matrix(.5 -.866 .866 .5 -53.55 150.288)" fill="#f6513b"></circle>
            <circle cx="91.701" cy="141.745" r="5.495" transform="matrix(.5 -.866 .866 .5 -76.904 150.288)" fill="#f6513b"></circle>
            <circle cx="80.024" cy="161.971" r="5.495" transform="matrix(.5 -.866 .866 .5 -100.259 150.288)" fill="#f6513b"></circle>
            <circle cx="147.712" cy="93.182" r="5.495" transform="matrix(.5 -.866 .866 .5 -6.842 174.513)" fill="#f6513b"></circle>
            <circle cx="136.035" cy="113.407" r="5.495" transform="matrix(.5 -.866 .866 .5 -30.196 174.513)" fill="#f6513b"></circle>
            <circle cx="124.358" cy="133.633" r="5.495" transform="matrix(.5 -.866 .866 .5 -53.55 174.513)" fill="#f6513b"></circle>
            <circle cx="112.681" cy="153.858" r="5.495" transform="matrix(.5 -.866 .866 .5 -76.904 174.513)" fill="#f6513b"></circle>
            <circle cx="101.004" cy="174.083" r="5.495" transform="matrix(.5 -.866 .866 .5 -100.259 174.513)" fill="#f6513b"></circle>
            <circle cx="168.692" cy="105.295" r="5.495" transform="matrix(.5 -.866 .866 .5 -6.842 198.739)" fill="#f6513b"></circle>
            <circle cx="157.015" cy="125.52" r="5.495" transform="matrix(.5 -.866 .866 .5 -30.196 198.739)" fill="#f6513b"></circle>
            <circle cx="145.338" cy="145.745" r="5.495" transform="matrix(.5 -.866 .866 .5 -53.55 198.739)" fill="#f6513b"></circle>
            <circle cx="133.66" cy="165.971" r="5.495" transform="matrix(.5 -.866 .866 .5 -76.904 198.739)" fill="#f6513b"></circle>
            <circle cx="121.983" cy="186.196" r="5.495" transform="matrix(.5 -.866 .866 .5 -100.259 198.739)" fill="#f6513b"></circle>
            <circle cx="189.671" cy="117.407" r="5.495" transform="matrix(.5 -.866 .866 .5 -6.842 222.964)" fill="#f6513b"></circle>
            <circle cx="177.994" cy="137.633" r="5.495" transform="matrix(.5 -.866 .866 .5 -30.196 222.964)" fill="#f6513b"></circle>
            <circle cx="166.317" cy="157.858" r="5.495" transform="matrix(.5 -.866 .866 .5 -53.55 222.964)" fill="#f6513b"></circle>
            <circle cx="154.64" cy="178.083" r="5.495" transform="matrix(.5 -.866 .866 .5 -76.904 222.964)" fill="#f6513b"></circle>
            <circle cx="142.963" cy="198.308" r="5.495" transform="matrix(.5 -.866 .866 .5 -100.259 222.964)" fill="#f6513b"></circle>
            <circle cx="210.651" cy="129.52" r="5.495" transform="matrix(.5 -.866 .866 .5 -6.842 247.189)" fill="#f6513b"></circle>
            <circle cx="198.974" cy="149.745" r="5.495" transform="matrix(.5 -.866 .866 .5 -30.196 247.189)" fill="#f6513b"></circle>
            <circle cx="187.297" cy="169.971" r="5.495" transform="matrix(.5 -.866 .866 .5 -53.55 247.189)" fill="#f6513b"></circle>
            <circle cx="175.62" cy="190.196" r="5.495" transform="matrix(.5 -.866 .866 .5 -76.904 247.189)" fill="#f6513b"></circle>
            <circle cx="163.943" cy="210.421" r="5.495" transform="matrix(.5 -.866 .866 .5 -100.259 247.189)" fill="#f6513b"></circle>
        </g>
        <rect xmlns="http://www.w3.org/2000/svg" fill="#ffe352" height="135.733" rx="5.344" width="135.733" x="76.829" y="100.765"></rect>
        <circle xmlns="http://www.w3.org/2000/svg" cx="96.245" cy="121.923" fill="#ffb236" r="5.495"></circle>
        <circle xmlns="http://www.w3.org/2000/svg" cx="96.245" cy="145.277" fill="#ffb236" r="5.495"></circle>
        <circle xmlns="http://www.w3.org/2000/svg" cx="96.245" cy="168.631" fill="#ffb236" r="5.495"></circle>
        <circle xmlns="http://www.w3.org/2000/svg" cx="96.245" cy="191.985" fill="#ffb236" r="5.495"></circle>
        <circle xmlns="http://www.w3.org/2000/svg" cx="96.245" cy="215.339" fill="#ffb236" r="5.495"></circle>
        <circle xmlns="http://www.w3.org/2000/svg" cx="120.47" cy="121.923" fill="#ffb236" r="5.495"></circle>
        <circle xmlns="http://www.w3.org/2000/svg" cx="120.47" cy="145.277" fill="#ffb236" r="5.495"></circle>
        <circle xmlns="http://www.w3.org/2000/svg" cx="120.47" cy="168.631" fill="#ffb236" r="5.495"></circle>
        <circle xmlns="http://www.w3.org/2000/svg" cx="120.47" cy="191.985" fill="#ffb236" r="5.495"></circle>
        <circle xmlns="http://www.w3.org/2000/svg" cx="120.47" cy="215.339" fill="#ffb236" r="5.495"></circle>
        <circle xmlns="http://www.w3.org/2000/svg" cx="144.695" cy="121.923" fill="#ffb236" r="5.495"></circle>
        <circle xmlns="http://www.w3.org/2000/svg" cx="144.695" cy="145.277" fill="#ffb236" r="5.495"></circle>
        <circle xmlns="http://www.w3.org/2000/svg" cx="144.695" cy="168.631" fill="#ffb236" r="5.495"></circle>
        <circle xmlns="http://www.w3.org/2000/svg" cx="144.695" cy="191.985" fill="#ffb236" r="5.495"></circle>
        <circle xmlns="http://www.w3.org/2000/svg" cx="144.695" cy="215.339" fill="#ffb236" r="5.495"></circle>
        <circle xmlns="http://www.w3.org/2000/svg" cx="168.92" cy="121.923" fill="#ffb236" r="5.495"></circle>
        <circle xmlns="http://www.w3.org/2000/svg" cx="168.92" cy="145.277" fill="#ffb236" r="5.495"></circle>
        <circle xmlns="http://www.w3.org/2000/svg" cx="168.92" cy="168.631" fill="#ffb236" r="5.495"></circle>
        <circle xmlns="http://www.w3.org/2000/svg" cx="168.92" cy="191.985" fill="#ffb236" r="5.495"></circle>
        <circle xmlns="http://www.w3.org/2000/svg" cx="168.92" cy="215.339" fill="#ffb236" r="5.495"></circle>
        <circle xmlns="http://www.w3.org/2000/svg" cx="193.146" cy="121.923" fill="#ffb236" r="5.495"></circle>
        <circle xmlns="http://www.w3.org/2000/svg" cx="193.146" cy="145.277" fill="#ffb236" r="5.495"></circle>
        <circle xmlns="http://www.w3.org/2000/svg" cx="193.146" cy="168.631" fill="#ffb236" r="5.495"></circle>
        <circle xmlns="http://www.w3.org/2000/svg" cx="193.146" cy="191.985" fill="#ffb236" r="5.495"></circle>
        <circle xmlns="http://www.w3.org/2000/svg" cx="193.146" cy="215.339" fill="#ffb236" r="5.495"></circle>
        <path xmlns="http://www.w3.org/2000/svg" d="m60.1579 83.0243s.8936.2234 2.4574 5.1381c.6368 2.0011 2.5328 12.3359 4.5569 23.886 0 0 1.2514 9.8468 9.07 12.7509 2.6808 1.34 19.4355 7.5955 19.4355 7.5955 11.17 4.2445 9.7888 13.6271 9.7888 13.6271v77.9652s1.5638 12.51-14.7441 12.51h-55.5849c-16.3079 0-14.7441-12.51-14.7441-12.51v-75.7311s9.1593-55.1788 10.723-60.0935 2.4574-5.1381 2.4574-5.1381" fill="#5179b7"></path>
        <path xmlns="http://www.w3.org/2000/svg" d="m58.5869 46.0648 4.8655 3.07-.694 7.1708c-.28 2.8961 2.4623 5.6372 5.2117 6.59l2.6427.9154s7.6137 12.8874 13.1982 16.6378c6.4383 4.8059 13.207 7.3243 6.523-2.9693-9.764-15.0374-9.9812-27.5648-9.9812-27.5648 6.4445-4.2963-2.148-9.1782-2.148-9.1782a41.4066 41.4066 0 0 0 -12.6963-4.781z" fill="#96bf32"></path>
        <path xmlns="http://www.w3.org/2000/svg" d="m83.714 36.842 13.085-5.05-2.539-10.936-14.061 2.317z" fill="#96bf32"></path>
        <path xmlns="http://www.w3.org/2000/svg" d="m81.7625 21.8324s-43.7425 4.1008-61.9041 24.6053c0 0 2.9293 5.4679 17.966 7.2254l-3.7105 25.1913h26.1676l-3.2233-21.8851s9.0818-.7675 12.2063-11.3127l10.74-3.32s5.8585-.9764 4.4915-8.5923c-1.9523-8.2016-2.7335-11.9119-2.7335-11.9119z" fill="#b2db4f"></path>
        <path xmlns="http://www.w3.org/2000/svg" d="m62.8347 83.7141v-7.0036a4.8963 4.8963 0 0 0 -4.882-4.882h-21.2857a4.8963 4.8963 0 0 0 -4.882 4.882v7.0036z" fill="#96bf32"></path>
        <path xmlns="http://www.w3.org/2000/svg" d="m20.617 147.586h84.667v72.604h-84.667z" fill="#b2db4f"></path>
    </g>
</svg>