<svg xmlns="http://www.w3.org/2000/svg" version="1.1" xmlns:xlink="http://www.w3.org/1999/xlink" xmlns:svgjs="http://svgjs.com/svgjs" width="512" height="512" x="0" y="0" viewBox="0 0 512 512.00037" style="enable-background:new 0 0 512 512" xml:space="preserve" class="">
    <g>
        <path xmlns="http://www.w3.org/2000/svg" d="m474.054688 40.359375-2.414063-2.414063c-50.589844-50.59375-132.910156-50.59375-183.503906 0l-86.835938 86.835938c-13.222656 13.222656-23.472656 29.222656-29.9375 46.644531-17.003906 6.285157-32.945312 16.238281-46.582031 29.875l-86.835938 86.835938c-50.59375 50.59375-50.59375 132.914062 0 183.503906l2.414063 2.414063c25.292969 25.296874 58.523437 37.945312 91.75 37.945312 33.230469 0 66.457031-12.648438 91.753906-37.945312l86.835938-86.835938c13.21875-13.21875 23.472656-29.222656 29.9375-46.644531 17.003906-6.285157 32.949219-16.238281 46.582031-29.875l86.835938-86.835938c50.59375-50.59375 50.59375-132.910156 0-183.503906zm-184.515626 325.699219-86.835937 86.839844c-38.921875 38.921874-102.257813 38.925781-141.183594 0l-2.414062-2.414063c-38.925781-38.925781-38.925781-102.265625 0-141.1875l86.835937-86.835937c38.925782-38.925782 102.257813-38.921876 141.183594 0l2.414062 2.414062c8.605469 8.605469 15.582032 18.746094 20.53125 29.765625-4.601562 1.761719-9.527343 2.695313-14.601562 2.695313-10.898438 0-21.144531-4.246094-28.851562-11.953126-.484376-.484374-1.003907-.914062-1.535157-1.316406-13.179687-12.46875-30.332031-19.324218-48.550781-19.324218-15.144531 0-29.554688 4.738281-41.5625 13.496093-.035156.027344-.070312.050781-.109375.078125-2.929687 2.144532-5.71875 4.523438-8.335937 7.140625l-84.425782 84.425781c-13.355468 13.355469-20.714844 31.117188-20.714844 50.007813s7.359376 36.652344 20.71875 50.011719c13.359376 13.359375 31.117188 20.714844 50.007813 20.714844 18.894531 0 36.65625-7.355469 50.011719-20.714844l84.488281-84.488282c9.488281 2.148438 19.171875 3.234376 28.859375 3.230469 2.710938 0 5.421875-.09375 8.128906-.261719-3.996094 6.378907-8.703125 12.324219-14.058594 17.675782zm44.546876-130.4375c-6.105469-11.714844-13.996094-22.519532-23.386719-31.90625l-2.414063-2.414063c-9.628906-9.628906-20.410156-17.421875-31.902344-23.386719l74.65625-74.652343c7.707032-7.707031 17.953126-11.953125 28.851563-11.953125s21.144531 4.246094 28.851563 11.949218c15.90625 15.910157 15.90625 41.796876 0 57.703126zm-156.167969 40.761718c6.101562 11.710938 13.996093 22.515626 23.382812 31.902344l2.414063 2.414063c9.632812 9.632812 20.414062 17.425781 31.902344 23.386719l-74.652344 74.65625c-7.707032 7.707031-17.953125 11.949218-28.855469 11.949218-10.898437 0-21.144531-4.246094-28.847656-11.949218-7.710938-7.707032-11.953125-17.953126-11.953125-28.851563s4.246094-21.144531 11.949218-28.851563zm274.980469-73.679687-86.839844 86.839844c-26.503906 26.5-64.320313 34.953125-98.046875 25.363281-1.007813-.425781-2.050781-.738281-3.109375-.933594-14.648438-4.6875-28.425782-12.828125-40.027344-24.429687l-2.414062-2.417969c-8.605469-8.601562-15.578126-18.742188-20.53125-29.765625 4.601562-1.761719 9.527343-2.695313 14.601562-2.695313 10.898438 0 21.144531 4.246094 28.851562 11.953126.484376.484374 1 .910156 1.527344 1.3125 13.183594 12.46875 30.339844 19.332031 48.558594 19.332031 15.144531 0 29.554688-4.738281 41.5625-13.5.035156-.023438.074219-.050781.109375-.078125 2.929687-2.144532 5.722656-4.523438 8.335937-7.136719l84.425782-84.425781c27.574218-27.574219 27.574218-72.441406 0-100.019532-13.359375-13.359374-31.121094-20.714843-50.011719-20.714843s-36.652344 7.355469-50.011719 20.714843l-84.488281 84.488282c-12.144531-2.75-24.609375-3.742188-36.984375-2.972656 3.992188-6.378907 8.703125-12.324219 14.054688-17.675782l86.835937-86.835937c38.925781-38.925781 102.261719-38.925781 141.1875 0l2.414063 2.414062c38.921874 38.921875 38.921874 102.257813 0 141.183594zm0 0" fill="#000000" data-original="#000000" class=""></path>
    </g>
</svg>
