<svg xmlns="http://www.w3.org/2000/svg" version="1.1" xmlns:xlink="http://www.w3.org/1999/xlink" xmlns:svgjs="http://svgjs.com/svgjs" width="512" height="512" x="0" y="0" viewBox="0 0 64 64" style="enable-background:new 0 0 512 512" xml:space="preserve" class="">
    <g>
        <g xmlns="http://www.w3.org/2000/svg" id="Redo-Reloading-Arrow-Arrows-Direction-User_Interface" data-name="Redo-Reloading-Arrow-Arrows-Direction-User Interface">
            <path d="m55.18 29.79a24 24 0 1 1 -29.39-16.97l1.46-.39-4.98-2.88a3 3 0 0 1 3-5.2l12.12 7a2 2 0 0 1 .73 2.73l-7 12.13a3 3 0 1 1 -5.19-3l2.87-4.99-.99.27c-9.58 2.56-15.69 12.29-13.26 21.91a18 18 0 1 0 31.73-15.37 3.136 3.136 0 0 1 -.67-1.92 2.9 2.9 0 0 1 .4-1.47 2.99 2.99 0 0 1 4.93-.38 23.728 23.728 0 0 1 4.24 8.53z" fill="#000000" data-original="#000000" class=""></path>
        </g>
    </g>
</svg>
